<?xml version="1.0" encoding="utf-8"?>
<!-- Generator: Adobe Illustrator 23.0.6, SVG Export Plug-In . SVG Version: 6.00 Build 0)  -->
<svg version="1.1" id="Layer_1" xmlns="http://www.w3.org/2000/svg" xmlns:xlink="http://www.w3.org/1999/xlink" x="0px" y="0px"
	 width="173.62393px" height="436.75803px" viewBox="0 0 173.62393 436.75803" enable-background="new 0 0 173.62393 436.75803"
	 xml:space="preserve">
<g>
	<path fill="#FFE9CA" d="M89.8354,158.53183c0.86621-10.44586-15.4264-10.38853-16.28764,0
		c-5.51636,66.5201-6.74211,203.69849-3.67724,270.37598c0.47949,10.43759,16.77011,10.49625,16.28763,0
		C83.09328,362.22964,84.31903,225.05127,89.8354,158.53183z"/>
	<g>
		<path fill="#A03F74" d="M77.85958,89.16922l18.41869,3.71866c5.07365,0.55306-2.12443-27.61196-4-26.10521
			C90.95213,67.84836,73.52324,81.85151,77.85958,89.16922z"/>
		<path fill="#A03F74" d="M66.27678,65.8704c3.32069-1.00141,6.24174-3.29816,8.75056-5.91799
			c5.76655-6.02303,9.82288-14.47701,9.22409-22.88891c-0.59846-8.4119-6.7325-16.22335-14.54362-16.53185l2.31232,0.77641
			C65.02982,22.08777,58.24397,25.937,53.55107,31.7844c-5.13561,6.39914-7.65537,15.54436-5.20586,23.26369
			C50.79504,62.76775,58.81427,68.12108,66.27678,65.8704z"/>
		<path fill="#A03F74" d="M132.19478,71.77347c2.01176-1.74136,3.30444-4.17795,4.19684-6.68445
			c2.05153-5.76158,2.07472-12.51031-1.18002-17.68835c-3.25508-5.17803-10.22252-8.13686-15.85088-5.74368l1.89677-0.2704
			c-4.68163,2.81634-8.18523,7.5268-9.53624,12.82048c-1.47826,5.79306-0.18192,12.47353,4.14878,16.59548
			C120.20074,74.92416,127.67452,75.68632,132.19478,71.77347z"/>
		<path fill="#A03F74" d="M115.76234,114.85955c0.95667,3.50725,1.26286,7.51289-0.80259,10.49458
			c-1.48322,2.14133-4.20943,3.44064-6.77094,2.96678c-1.66614-0.30818-3.15036-1.30793-4.27172-2.57808
			c-2.21523-2.50948-2.98203-5.83282-3.30942-9.23072c-5.32317-0.10272-11.26337-0.79165-18.0913-2.49855
			c-5.96803-1.49217-10.88029-3.29848-14.99561-5.29301c-0.18225,0.38439-0.35821,0.77541-0.56168,1.13628
			c-1.80532,3.19907-4.45066,6.31596-8.06495,6.97208c-2.56317,0.46525-5.40933-0.54379-6.88559-2.69009
			c-0.96032-1.39574-1.30296-3.15268-1.19758-4.84367c0.2144-3.4433,2.11416-6.41836,4.37511-9.11607
			c-11.39492-11.49333-8.68296-24.17-16.10339-24.17c-5.42921,0-10.85842,54.29211,38.00448,65.15054
			c48.8629,10.85841,70.57974-32.57528,65.15053-38.00449C138.5979,99.51534,132.4632,110.48444,115.76234,114.85955z"/>
	</g>
	<path fill="#FFB118" d="M173.18658,64.37657c-1.6794-16.77608-8.43045-33.67709-21.47461-44.35889
		c-11.11557-9.10248-25.56177-12.86621-39.59143-15.96123c-13.50974-2.9807-27.5046-5.57634-41.0985-3.00853
		C49.97192,5.02439,33.23958,20.61482,18.5263,36.1847C12.29483,42.77869,6.06933,49.68715,2.65454,58.09241
		c-5.55778,13.68073-2.12808,30.35474,7.85552,41.1333c5.16179,26.99992,26.04026,50.35342,52.20811,58.97044
		c27.21233,8.96098,58.8233,2.04755,80.45366-16.73962C164.80186,122.66935,176.04036,92.8839,173.18658,64.37657z
		 M111.72124,54.20707c1.35101-5.29368,4.85461-10.00414,9.53624-12.82048l-1.89677,0.2704
		c5.62836-2.39317,12.5958,0.56565,15.85088,5.74368c3.25475,5.17803,3.23155,11.92677,1.18002,17.68835
		c-0.8924,2.5065-2.18507,4.94308-4.19684,6.68445c-4.52026,3.91285-11.99404,3.1507-16.32475-0.97092
		C111.53932,66.6806,110.24299,60.00013,111.72124,54.20707z M92.27827,66.78267c1.87557-1.50675,9.07365,26.65827,4,26.10521
		l-18.41869-3.71866C73.52324,81.85151,90.95213,67.84836,92.27827,66.78267z M53.55107,31.7844
		c4.6929-5.8474,11.47875-9.69663,18.46906-10.47635l-2.31232-0.77641c7.81112,0.30851,13.94516,8.11996,14.54362,16.53185
		c0.59879,8.4119-3.45754,16.86588-9.22409,22.88891c-2.50883,2.61983-5.42988,4.91658-8.75056,5.91799
		c-7.46251,2.25068-15.48174-3.10265-17.93157-10.8223C45.8957,47.32877,48.41546,38.18354,53.55107,31.7844z M77.08716,141.15962
		c-48.86291-10.85843-43.43369-65.15054-38.00448-65.15054c7.42043,0,4.70847,12.67667,16.10339,24.17
		c-2.26096,2.69771-4.16072,5.67277-4.37511,9.11607c-0.10538,1.69099,0.23726,3.44793,1.19758,4.84367
		c1.47626,2.1463,4.32243,3.15533,6.88559,2.69009c3.61428-0.65612,6.25963-3.77301,8.06495-6.97208
		c0.20347-0.36086,0.37943-0.75188,0.56168-1.13628c4.11532,1.99453,9.02759,3.80084,14.99561,5.29301
		c6.82793,1.7069,12.76813,2.39583,18.0913,2.49855c0.32739,3.3979,1.09419,6.72124,3.30942,9.23072
		c1.12136,1.27015,2.60558,2.2699,4.27172,2.57808c2.56152,0.47386,5.28772-0.82545,6.77094-2.96678
		c2.06544-2.98169,1.75926-6.98733,0.80259-10.49458c16.70086-4.37511,22.83556-15.34422,26.47535-11.70441
		C147.6669,108.58434,125.95006,152.01804,77.08716,141.15962z"/>
</g>
</svg>
